<svg width="59" height="90" viewBox="0 0 59 90" fill="none" xmlns="http://www.w3.org/2000/svg">
<g clip-path="url(#clip0_86226_434)">
<path d="M15.0513 89.331C23.0898 89.331 29.61 82.721 29.61 74.5717V59.8125H15.0513C7.0128 59.8125 0.492676 66.4225 0.492676 74.5717C0.492676 82.721 7.0128 89.331 15.0513 89.331Z" fill="#0ACF83"/>
<path d="M0.492676 45.0366C0.492676 36.8873 7.0128 30.2773 15.0513 30.2773H29.61V59.8139H15.0513C7.0128 59.7958 0.492676 53.1859 0.492676 45.0366Z" fill="#A259FF"/>
<path d="M0.492676 15.4995C0.492676 7.3502 7.0128 0.740234 15.0513 0.740234H29.61V30.2768H15.0513C7.0128 30.2768 0.492676 23.6488 0.492676 15.4995Z" fill="#F24E1E"/>
<path d="M29.6279 0.740234H44.1866C52.2251 0.740234 58.7452 7.3502 58.7452 15.4995C58.7452 23.6488 52.2251 30.2587 44.1866 30.2587H29.6279V0.740234Z" fill="#FF7262"/>
<path d="M58.7452 45.0366C58.7452 53.1859 52.2251 59.7958 44.1866 59.7958C36.1481 59.7958 29.6279 53.1859 29.6279 45.0366C29.6279 36.8873 36.1481 30.2773 44.1866 30.2773C52.2251 30.2773 58.7452 36.8873 58.7452 45.0366Z" fill="#1ABCFE"/>
</g>
<defs>
<clipPath id="clip0_86226_434">
<rect width="58.2524" height="88.5917" fill="white" transform="translate(0.492676 0.740234)"/>
</clipPath>
</defs>
</svg>
