<svg width="167" height="27" viewBox="0 0 167 27" fill="none" xmlns="http://www.w3.org/2000/svg">
<path d="M12.2146 3.10696C12.5152 2.18837 13.8147 2.18836 14.1154 3.10696L15.8663 8.45669C16.0008 8.86767 16.3842 9.14564 16.8167 9.14564H22.4672C23.4377 9.14564 23.8393 10.389 23.0522 10.9567L18.4934 14.2449C18.1403 14.4995 17.9926 14.9533 18.128 15.367L19.8722 20.6964C20.1733 21.6165 19.122 22.3848 18.3368 21.8185L13.75 18.5101C13.4007 18.2581 12.9293 18.2581 12.58 18.5101L7.99315 21.8185C7.20802 22.3848 6.15665 21.6165 6.45777 20.6964L8.20203 15.367C8.33743 14.9533 8.18967 14.4995 7.83663 14.2449L3.2778 10.9567C2.4907 10.389 2.8923 9.14564 3.86279 9.14564H9.5133C9.94574 9.14564 10.3292 8.86768 10.4637 8.45669L12.2146 3.10696Z" fill="#070707"/>
<path d="M47.312 3.10696C47.6127 2.18837 48.9122 2.18836 49.2128 3.10696L50.9637 8.45669C51.0982 8.86767 51.4817 9.14564 51.9141 9.14564H57.5646C58.5351 9.14564 58.9367 10.389 58.1496 10.9567L53.5908 14.2449C53.2377 14.4995 53.09 14.9533 53.2254 15.367L54.9696 20.6964C55.2707 21.6165 54.2194 22.3848 53.4342 21.8185L48.8474 18.5101C48.4981 18.2581 48.0267 18.2581 47.6774 18.5101L43.0906 21.8185C42.3054 22.3848 41.2541 21.6165 41.5552 20.6964L43.2994 15.367C43.4348 14.9533 43.2871 14.4995 42.934 14.2449L38.3752 10.9567C37.5881 10.389 37.9897 9.14564 38.9602 9.14564H44.6107C45.0432 9.14564 45.4266 8.86768 45.5611 8.45669L47.312 3.10696Z" fill="#070707"/>
<path d="M82.4092 3.10696C82.7098 2.18837 84.0093 2.18836 84.31 3.10696L86.0609 8.45669C86.1954 8.86767 86.5788 9.14564 87.0113 9.14564H92.6618C93.6323 9.14564 94.0339 10.389 93.2468 10.9567L88.6879 14.2449C88.3349 14.4995 88.1871 14.9533 88.3225 15.367L90.0668 20.6964C90.3679 21.6165 89.3165 22.3848 88.5314 21.8185L83.9446 18.5101C83.5953 18.2581 83.1239 18.2581 82.7746 18.5101L78.1877 21.8185C77.4026 22.3848 76.3512 21.6165 76.6523 20.6964L78.3966 15.367C78.532 14.9533 78.3842 14.4995 78.0312 14.2449L73.4724 10.9567C72.6853 10.389 73.0869 9.14564 74.0574 9.14564H79.7079C80.1403 9.14564 80.5238 8.86768 80.6583 8.45669L82.4092 3.10696Z" fill="#070707"/>
<path d="M117.506 3.10696C117.807 2.18837 119.106 2.18836 119.407 3.10696L121.158 8.45669C121.293 8.86767 121.676 9.14564 122.108 9.14564H127.759C128.729 9.14564 129.131 10.389 128.344 10.9567L123.785 14.2449C123.432 14.4995 123.284 14.9533 123.42 15.367L125.164 20.6964C125.465 21.6165 124.414 22.3848 123.629 21.8185L119.042 18.5101C118.692 18.2581 118.221 18.2581 117.872 18.5101L113.285 21.8185C112.5 22.3848 111.448 21.6165 111.75 20.6964L113.494 15.367C113.629 14.9533 113.481 14.4995 113.128 14.2449L108.57 10.9567C107.782 10.389 108.184 9.14564 109.155 9.14564H114.805C115.237 9.14564 115.621 8.86768 115.755 8.45669L117.506 3.10696Z" fill="#070707"/>
<path d="M152.603 3.10696C152.904 2.18837 154.203 2.18836 154.504 3.10696L156.255 8.45669C156.389 8.86767 156.773 9.14564 157.205 9.14564H162.856C163.826 9.14564 164.228 10.389 163.441 10.9567L158.882 14.2449C158.529 14.4995 158.381 14.9533 158.517 15.367L160.261 20.6964C160.562 21.6165 159.511 22.3848 158.726 21.8185L154.139 18.5101C153.789 18.2581 153.318 18.2581 152.969 18.5101L148.382 21.8185C147.597 22.3848 146.545 21.6165 146.846 20.6964L148.591 15.367C148.726 14.9533 148.578 14.4995 148.225 14.2449L143.666 10.9567C142.879 10.389 143.281 9.14564 144.251 9.14564H149.902C150.334 9.14564 150.718 8.86768 150.852 8.45669L152.603 3.10696Z" fill="#E5E5E5"/>
</svg>
