<svg width="90" height="89" viewBox="0 0 90 89" fill="none" xmlns="http://www.w3.org/2000/svg">
<path d="M4.07031 4.50781H85.8308V85.1496H4.07031V4.50781Z" fill="url(#paint0_radial_86226_423)"/>
<path d="M4.07031 4.50702H85.8308V85.1488H4.07031V4.50702ZM0.354736 88.9156H89.5643V0.740234H0.354736V88.9156ZM63.4659 43.2433C65.3594 43.2433 66.0383 43.2433 66.2169 43.1709C66.2169 42.8992 66.2883 42.7182 66.2883 42.5371C66.2883 40.5088 65.3237 36.742 61.4652 36.742C57.8926 36.742 56.3742 39.9112 55.9991 43.2614H63.4659V43.2433ZM55.9276 48.4045C55.9991 53.4933 58.3749 56.916 64.0376 56.916C66.2347 56.916 68.1283 56.6082 70.0932 55.757C70.3612 55.6484 70.5398 55.6846 70.5398 56.0287V60.7371C70.5398 61.1174 70.4326 61.2985 70.1647 61.4977C68.1997 62.4757 65.7346 62.9284 62.6978 62.9284C52.8908 62.9284 49.211 55.5759 49.211 47.4085C49.211 38.5167 53.7483 31.2367 61.7332 31.2367C69.8431 31.2367 72.6656 38.1364 72.6656 43.7504C72.6656 45.5613 72.5584 47.0282 72.3619 47.7526C72.2904 48.0605 72.1832 48.1691 71.8796 48.2416C71.1293 48.3502 68.95 48.5132 65.681 48.5132H55.9455V48.4045H55.9276ZM35.9921 44.5653C34.956 40.382 32.4194 31.2729 31.4905 26.8542H31.4191C30.6331 31.2548 28.5967 38.7159 27.0783 44.5653H35.9921ZM25.5599 50.6682L22.6303 61.9324C22.5589 62.2402 22.4517 62.3489 22.0766 62.3489H16.5925C16.2174 62.3489 16.1459 62.2402 16.2174 61.7875L26.7746 24.3732C26.9533 23.7031 27.0783 23.1598 27.1498 21.2765C27.1498 21.0048 27.2569 20.8962 27.4534 20.8962H35.2597C35.5277 20.8962 35.6348 20.9686 35.7063 21.2765L47.514 61.8599C47.5854 62.1678 47.514 62.3489 47.2103 62.3489H41.0832C40.7795 62.3489 40.6008 62.2402 40.5294 61.9686L37.4748 50.6682H25.5599Z" fill="#D8A1FF"/>
<defs>
<radialGradient id="paint0_radial_86226_423" cx="0" cy="0" r="1" gradientUnits="userSpaceOnUse" gradientTransform="translate(31.0228 22.5876) scale(62.1407 60.9927)">
<stop stop-color="#442F55" stop-opacity="0.98"/>
<stop offset="1" stop-color="#12002C"/>
</radialGradient>
</defs>
</svg>
