<svg width="90" height="89" viewBox="0 0 90 89" fill="none" xmlns="http://www.w3.org/2000/svg">
<path d="M4.00317 4.50781H85.7636V85.1496H4.00317V4.50781Z" fill="url(#paint0_radial_86226_410)"/>
<path d="M4.00317 4.50702H85.7636V85.1488H4.00317V4.50702ZM0.287598 88.9156H89.4971V0.740234H0.287598V88.9156ZM58.7186 32.1784C58.7186 31.8705 58.8257 31.7257 59.1651 31.7257H65.0064C65.3101 31.7257 65.453 31.8343 65.453 32.1784V61.9143C65.453 62.2221 65.3816 62.367 65.0064 62.367H59.2366C58.8615 62.367 58.7543 62.1859 58.7543 61.878V32.1784H58.7186ZM58.3077 23.6126C58.3077 21.204 59.9868 19.7734 62.0947 19.7734C64.3634 19.7734 65.8818 21.3127 65.8818 23.6126C65.8818 26.0936 64.2919 27.4518 62.0233 27.4518C59.8797 27.4699 58.3077 26.1117 58.3077 23.6126ZM41.5876 44.5653C40.5515 40.382 38.0864 31.2729 37.1575 26.8542H37.0861C36.3001 31.2548 34.3351 38.7159 32.781 44.5653H41.5876ZM31.2626 50.6682L28.333 61.9686C28.2616 62.2765 28.1544 62.3489 27.7793 62.3489H22.3131C21.938 62.3489 21.8665 62.2402 21.938 61.7875L32.4952 24.337C32.6738 23.6669 32.7989 23.0512 32.8703 21.204C32.8703 20.9324 32.9775 20.8237 33.174 20.8237H40.9803C41.2482 20.8237 41.3554 20.8962 41.4268 21.204L53.2524 61.8599C53.3238 62.1678 53.2524 62.3489 52.9487 62.3489H46.7858C46.4822 62.3489 46.3035 62.2765 46.2321 62.0048L43.1775 50.6682H31.2626Z" fill="#FF7F18"/>
<defs>
<radialGradient id="paint0_radial_86226_410" cx="0" cy="0" r="1" gradientUnits="userSpaceOnUse" gradientTransform="translate(30.9578 22.6036) scale(62.1406 60.9927)">
<stop stop-color="#423325" stop-opacity="0.98"/>
<stop offset="1" stop-color="#1C0A00"/>
</radialGradient>
</defs>
</svg>
