<svg width="89" height="89" viewBox="0 0 89 89" fill="none" xmlns="http://www.w3.org/2000/svg">
<path d="M3.81738 4.48242H85.2568V84.9746H3.81738V4.48242Z" fill="url(#paint0_radial_86226_398)"/>
<path d="M3.81734 4.48303H85.2567V84.9751H3.81734V4.48303ZM0.114746 88.7375H88.9415V0.720703H0.114746V88.7375ZM60.015 36.8427C57.0956 36.8427 56.0988 38.344 56.0988 39.5921C56.0988 40.9487 56.7574 41.8893 60.6914 43.9513C66.4945 46.8092 68.3102 49.5586 68.3102 53.5742C68.3102 59.5975 63.7888 62.8353 57.683 62.8353C54.4611 62.8353 51.6841 62.166 50.0998 61.2254C49.8328 61.1169 49.7972 60.9179 49.7972 60.6285V55.0755C49.7972 54.6956 49.9752 54.5871 50.2422 54.768C52.5742 56.3055 55.2443 56.9928 57.683 56.9928C60.6024 56.9928 61.8307 55.7447 61.8307 54.0625C61.8307 52.7059 60.9762 51.5121 57.238 49.5405C51.9867 46.9901 49.7972 44.4035 49.7972 40.0624C49.7972 35.2147 53.5354 31.1811 60.015 31.1811C63.2013 31.1811 65.4265 31.6695 66.6369 32.2302C66.9395 32.4111 67.0107 32.7186 67.0107 32.9899V38.145C67.0107 38.4525 66.8327 38.6334 66.4589 38.5249C64.8212 37.4757 62.4181 36.8427 60.015 36.8427ZM28.1869 41.3104C29.0413 41.3828 29.6999 41.3828 31.1774 41.3828C35.503 41.3828 39.5795 39.8453 39.5795 33.8581C39.5795 29.0829 36.6601 26.6771 31.7292 26.6771C30.2518 26.6771 28.8455 26.7495 28.1691 26.7857L28.1869 41.3104ZM21.5827 21.3412C21.5827 21.0698 22.0989 20.889 22.4015 20.889C24.7691 20.7804 28.2937 20.7081 31.9429 20.7081C42.1962 20.7081 46.2014 26.4239 46.2014 33.7134C46.2014 43.2639 39.3837 47.3699 31.0172 47.3699C29.6109 47.3699 29.1303 47.2976 28.1335 47.2976V61.7319C28.1335 62.0394 28.0266 62.1841 27.6884 62.1841H22.0277C21.7251 62.1841 21.5827 62.0756 21.5827 61.7319V21.3412Z" fill="#31C5F0"/>
<defs>
<radialGradient id="paint0_radial_86226_398" cx="0" cy="0" r="1" gradientUnits="userSpaceOnUse" gradientTransform="translate(30.6474 22.5409) scale(61.8848 60.8823)">
<stop stop-color="#34364E" stop-opacity="0.98"/>
<stop offset="1" stop-color="#0C0824"/>
</radialGradient>
</defs>
</svg>
