<svg width="22" height="21" viewBox="0 0 22 21" fill="none" xmlns="http://www.w3.org/2000/svg">
<path d="M10.2146 1.10696C10.5152 0.188365 11.8147 0.188365 12.1154 1.10696L13.8663 6.45669C14.0008 6.86767 14.3842 7.14564 14.8167 7.14564H20.4672C21.4377 7.14564 21.8393 8.38896 21.0522 8.95668L16.4934 12.2449C16.1403 12.4995 15.9926 12.9533 16.128 13.367L17.8722 18.6964C18.1733 19.6165 17.122 20.3848 16.3368 19.8185L11.75 16.5101C11.4007 16.2581 10.9293 16.2581 10.58 16.5101L5.99315 19.8185C5.20802 20.3848 4.15665 19.6165 4.45777 18.6964L6.20203 13.367C6.33743 12.9533 6.18967 12.4995 5.83663 12.2449L1.2778 8.95668C0.490696 8.38896 0.892304 7.14564 1.86279 7.14564H7.5133C7.94574 7.14564 8.32918 6.86768 8.46369 6.45669L10.2146 1.10696Z" fill="#070707"/>
</svg>
